<?xml version="1.0" encoding="UTF-8" standalone="no"?>
<!-- Created with Inkscape (http://www.inkscape.org/) -->

<svg
   xmlns:dc="http://purl.org/dc/elements/1.1/"
   xmlns:cc="http://creativecommons.org/ns#"
   xmlns:rdf="http://www.w3.org/1999/02/22-rdf-syntax-ns#"
   xmlns:svg="http://www.w3.org/2000/svg"
   xmlns="http://www.w3.org/2000/svg"
   xmlns:sodipodi="http://sodipodi.sourceforge.net/DTD/sodipodi-0.dtd"
   xmlns:inkscape="http://www.inkscape.org/namespaces/inkscape"
   width="250"
   height="250"
   id="svg3125"
   version="1.1"
   inkscape:version="0.48.2 r9819"
   sodipodi:docname="logo-running.svg"
   inkscape:export-filename="/Users/jared/clone/scd/strider/public/images/favicon-running-gear-4.png"
   inkscape:export-xdpi="5.7600002"
   inkscape:export-ydpi="5.7600002">
  <defs
     id="defs3127" />
  <sodipodi:namedview
     id="base"
     pagecolor="#ffffff"
     bordercolor="#666666"
     borderopacity="1.0"
     inkscape:pageopacity="0.0"
     inkscape:pageshadow="2"
     inkscape:zoom="1.4142136"
     inkscape:cx="98.145424"
     inkscape:cy="109.52475"
     inkscape:document-units="px"
     inkscape:current-layer="layer1"
     showgrid="false"
     inkscape:object-paths="false"
     inkscape:window-width="1180"
     inkscape:window-height="701"
     inkscape:window-x="29"
     inkscape:window-y="3"
     inkscape:window-maximized="0"
     inkscape:snap-bbox="true"
     inkscape:snap-nodes="true"
     inkscape:snap-global="true">
    <inkscape:grid
       type="xygrid"
       id="grid3198"
       empspacing="5"
       visible="true"
       enabled="true"
       snapvisiblegridlinesonly="true" />
  </sodipodi:namedview>
  <metadata
     id="metadata3130">
    <rdf:RDF>
      <cc:Work
         rdf:about="">
        <dc:format>image/svg+xml</dc:format>
        <dc:type
           rdf:resource="http://purl.org/dc/dcmitype/StillImage" />
        <dc:title></dc:title>
      </cc:Work>
    </rdf:RDF>
  </metadata>
  <g
     inkscape:label="Layer 1"
     inkscape:groupmode="layer"
     id="layer1"
     transform="translate(0,-802.36217)">
    <g
       id="g4028"
       transform="translate(-560,409.98718)">
      <path
         id="path3254"
         d="M 580.15625,449.4375 679,503.375 l 3,-57 -30.5625,-49.3125 c -29.68296,8.27089 -54.9025,27.14593 -71.28125,52.375 z"
         style="fill:#006eaf;fill-opacity:1;stroke:none"
         inkscape:connector-curvature="0" />
      <path
         id="path3252"
         d="M 618.625,623.15625 680,523.375 580.125,449.46875 C 567.43686,469.02764 560,492.32468 560,517.375 c 0,44.61944 23.44917,83.66331 58.625,105.78125 z"
         style="fill:#00a7e1;fill-opacity:1;stroke:none"
         inkscape:connector-curvature="0" />
      <path
         id="path3250"
         d="m 686,642.3125 -6,-97.9375 -61.34375,78.78125 C 637.90001,635.25066 660.5934,642.375 685,642.375 c 0.33778,0 0.66286,-0.0598 1,-0.0625 z"
         style="fill:#5bc9ec;fill-opacity:1;stroke:none"
         inkscape:connector-curvature="0" />
      <path
         id="path3248"
         d="M 752.40625,622.5 689,542.375 l -3,99.9375 c 24.47027,-0.19412 47.20674,-7.47677 66.40625,-19.8125 z"
         style="fill:#5bc9ec;fill-opacity:1;stroke:none"
         inkscape:connector-curvature="0" />
      <path
         id="path3246"
         d="M 790.9375,451.25 690,523.375 752.40625,622.5 C 787.00676,600.26908 810,561.55676 810,517.375 c 0,-24.30242 -7.03186,-46.93342 -19.03125,-66.125 -0.003,-0.005 -0.0284,0.005 -0.0312,0 z"
         style="fill:#00a7e1;fill-opacity:1;stroke:none"
         inkscape:connector-curvature="0" />
      <path
         id="path3244"
         d="M 721.625,397.84375 686,440.375 651.46875,397.03125 c -0.0122,0.003 -0.019,0.0279 -0.0312,0.0312 L 682,446.375 l -3,57 -98.84375,-53.9375 c -0.008,0.012 -0.0235,0.0193 -0.0312,0.0312 L 680,523.375 618.625,623.15625 c 0.008,0.005 0.0237,-0.005 0.0312,0 L 680,544.375 686,642.3125 689,542.375 752.40625,622.5 690,523.375 790.9375,451.25 690,507.375 l -1,-61 32.625,-48.53125 z"
         style="fill:#ffffff;stroke:none"
         inkscape:connector-curvature="0" />
      <path
         id="path3242"
         d="M 721.625,397.84375 689,446.375 l 1,61 100.9375,-56.125 C 775.14717,426.00255 750.68398,406.7426 721.625,397.84375 z"
         style="fill:#006eaf;fill-opacity:1;stroke:none"
         inkscape:connector-curvature="0" />
      <path
         id="path3212"
         d="m 685,392.375 c -11.6365,0 -22.84292,1.68157 -33.53125,4.65625 L 686,440.375 721.625,397.84375 C 710.03404,394.2942 697.75361,392.375 685,392.375 z"
         style="fill:#013a78;fill-opacity:1;stroke:none"
         inkscape:connector-curvature="0" />
    </g>
    <path
       style="fill:#ffffff;stroke:none"
       d="m 135.9375,829.21875 c -8.00532,1.20211 -16.13971,-0.58917 -24.15625,0.5 -1.78677,8.37421 -0.99449,17.75979 -4.84375,25.5 -3.84657,4.52588 -10.318237,5.20908 -15.1875,8.21875 -6.728682,2.9583 -12.148713,-3.14332 -16.753719,-7.06865 -3.108358,-2.05589 -6.544224,-6.8517 -10.246281,-6.5876 -6.392986,5.74979 -13.723829,11.88193 -18.1875,18.9375 5.760141,6.71402 11.420127,13.79077 16.65625,21.0625 -3.603848,6.45053 -6.53987,13.27003 -8.375,20.40625 -9.082556,2.57032 -18.920263,0.92827 -27.71875,4.625 0.345615,8.51909 -0.360721,17.76095 0.25,25.84375 7.791106,0.76625 16.055229,0.84901 23.375,3.5 7.234937,2.55067 6.828823,11.45892 10.40625,16.96875 1.326422,9.50871 -7.962092,15.21411 -12.5,22.34375 -1.180791,1.13753 -3.37393,3.60419 -0.71875,4.46875 6.090561,5.49971 11.158221,13.2809 18.1875,17.2187 6.611329,-4.9607 12.382676,-12.2795 20.71875,-14.49995 5.730165,-0.97201 9.408645,4.84077 15.03125,5.0625 8.76578,2.38064 8.43272,13.20495 9.1875,20.46875 0.92718,3.2122 -0.6385,10.284 4.5625,9 7.52962,-0.2966 15.89245,0.3226 22.96875,-0.1875 -0.95775,-5.581 2.41352,-10.2955 1.78125,-15.9375 -0.28655,-6.3103 3.43742,-12.07609 9.5,-14.03125 5.7243,-1.70464 12.14839,-7.33 17.96875,-2.71875 5.66412,4.20089 10.62006,9.6197 16.78125,13.0625 6.72204,-5.68626 14.00824,-12.17636 18.78125,-19.34375 -5.86749,-6.58933 -11.47132,-13.81478 -16.59375,-21.1875 3.47824,-6.47833 6.50448,-13.17448 8.375,-20.28125 8.99665,-2.5005 18.90202,-1.14771 27.625,-4.625 0.2437,-8.40516 -0.1344,-16.98008 -0.0312,-25.28125 -9.11779,-1.76442 -18.39879,-2.54702 -27.5,-4.40625 -2.15485,-6.92619 -4.69975,-13.74098 -8.34375,-20.03125 4.3296,-8.11525 12.7515,-14.36405 15.875,-22.75 -6.05036,-5.9601 -11.8912,-12.73596 -18.4375,-17.875 -4.29843,2.43048 -7.74229,6.44288 -11.875,9.375 -4.58865,4.77497 -12.43772,7.30603 -17.9375,2.53125 -5.96069,-2.083 -14.15273,-4.65769 -14.28125,-12.34375 -1.11444,-6.54768 -0.89529,-13.77678 -3.1875,-19.9375 -0.38161,-0.005 -0.776,-0.0742 -1.15625,0 z m -11,54.6875 C 152.25232,882.88574 175.06718,912.56197 167,938.75 160.80281,963.89928 128.86231,978.93475 105.75,966.375 83.576733,955.81693 74.036329,924.55343 88.40625,904 c 7.868234,-12.18059 21.92933,-20.13781 36.53125,-20.09375 z"
       id="loading"
       inkscape:connector-curvature="0" />
  </g>
</svg>
